<svg width="26" height="24" viewBox="0 0 26 24" fill="none" xmlns="http://www.w3.org/2000/svg">
<path d="M4.10526 0H21.8947C22.9835 0 24.0277 0.505713 24.7976 1.40589C25.5675 2.30606 26 3.52696 26 4.8V19.2C26 20.473 25.5675 21.6939 24.7976 22.5941C24.0277 23.4943 22.9835 24 21.8947 24H4.10526C3.01648 24 1.97229 23.4943 1.2024 22.5941C0.432518 21.6939 0 20.473 0 19.2V4.8C0 3.52696 0.432518 2.30606 1.2024 1.40589C1.97229 0.505713 3.01648 0 4.10526 0V0ZM4.10526 1.6C3.46316 1.59874 2.84132 1.86282 2.34958 2.3456L13 10.432L23.6504 2.3456C23.1586 1.86306 22.5368 1.59902 21.8947 1.6H4.10526ZM13 12.3392L1.55179 3.648C1.43039 4.01548 1.36822 4.40606 1.36842 4.8V19.2C1.36842 20.0487 1.65677 20.8626 2.17002 21.4627C2.68328 22.0629 3.37941 22.4 4.10526 22.4H21.8947C22.6206 22.4 23.3167 22.0629 23.83 21.4627C24.3432 20.8626 24.6316 20.0487 24.6316 19.2V4.8C24.6316 4.3936 24.5673 4.0048 24.4482 3.648L13 12.3376V12.3392Z" fill="white"/>
</svg>
